<svg xmlns="http://www.w3.org/2000/svg" width="24" height="24" viewBox="0 0 24 24">
  <g id="Groupe_143" data-name="Groupe 143" transform="translate(-1225 -13)">
    <circle id="Ellipse_7" data-name="Ellipse 7" cx="12" cy="12" r="12" transform="translate(1225 13)" fill="#fff"/>
    <g id="boat" transform="translate(1227.217 15.846)">
      <path id="Tracé_8" data-name="Tracé 8" d="M18.689,40.732a.207.207,0,0,0-.108-.182,8.61,8.61,0,0,1-1.9-1.454.3.3,0,0,0-.385-.046,4.453,4.453,0,0,1-4.9,0,.306.306,0,0,0-.388.047,8.2,8.2,0,0,1-1.891,1.446A.215.215,0,0,0,9,40.719a.2.2,0,0,0,.24.217,6.905,6.905,0,0,0,1.823-.722.264.264,0,0,1,.242,0,5.607,5.607,0,0,0,5.082,0,.267.267,0,0,1,.245,0,7.041,7.041,0,0,0,1.817.721.2.2,0,0,0,.242-.2Z" transform="translate(-4.061 -24.881)" fill="#0b1c2b"/>
      <path id="Tracé_9" data-name="Tracé 9" d="M16.467,9a1.02,1.02,0,0,0-.633-.556l-.721-.287V5.642A1.938,1.938,0,0,0,13.175,3.7h-.969V3.461A1.211,1.211,0,0,0,10.994,2.25H8.572A1.211,1.211,0,0,0,7.361,3.461V3.7H6.391A1.938,1.938,0,0,0,4.453,5.642V8.16l-.714.284A1.027,1.027,0,0,0,3.1,9a1.079,1.079,0,0,0-.039.8l0,.009L4.475,13.43a.706.706,0,0,0,.662.449l.046,0a3.756,3.756,0,0,0,2.2-.957,3.7,3.7,0,0,0,2.4.959,3.689,3.689,0,0,0,2.4-.96,3.75,3.75,0,0,0,2.2.958.707.707,0,0,0,.708-.446l1.413-3.6A1.088,1.088,0,0,0,16.467,9Zm-6.29-2.807-.035-.012a1.2,1.2,0,0,0-.719,0l-.018.005L5.588,7.708a.121.121,0,0,1-.166-.113V5.642a.969.969,0,0,1,.969-.969h6.783a.969.969,0,0,1,.969.969V7.593a.121.121,0,0,1-.166.113Z" transform="translate(0 0)" fill="#0b1c2b"/>
    </g>
  </g>
</svg>
