<svg id="instagram" xmlns="http://www.w3.org/2000/svg" width="20" height="20" viewBox="0 0 20 20">
  <g id="Groupe_6" data-name="Groupe 6">
    <path id="Tracé_14" data-name="Tracé 14" d="M10,0C7.286,0,6.945.012,5.879.06A7.368,7.368,0,0,0,3.45.525,4.9,4.9,0,0,0,1.679,1.679,4.909,4.909,0,0,0,.525,3.45,7.325,7.325,0,0,0,.06,5.875C.012,6.944,0,7.284,0,10s.012,3.055.06,4.121A7.367,7.367,0,0,0,.525,16.55a5.12,5.12,0,0,0,2.924,2.925,7.341,7.341,0,0,0,2.427.465C6.944,19.987,7.284,20,10,20s3.055-.013,4.123-.06a7.382,7.382,0,0,0,2.429-.465,5.12,5.12,0,0,0,2.924-2.925,7.4,7.4,0,0,0,.465-2.428c.047-1.066.06-1.406.06-4.122s-.013-3.056-.06-4.124a7.391,7.391,0,0,0-.465-2.426,4.907,4.907,0,0,0-1.154-1.771A4.889,4.889,0,0,0,16.55.525,7.357,7.357,0,0,0,14.121.06C13.054.012,12.715,0,10,0h0ZM9.1,1.8H10c2.67,0,2.986.009,4.04.058A5.542,5.542,0,0,1,15.9,2.2a3.1,3.1,0,0,1,1.15.749A3.09,3.09,0,0,1,17.8,4.1a5.493,5.493,0,0,1,.344,1.856c.049,1.054.059,1.37.059,4.039s-.01,2.986-.059,4.04a5.532,5.532,0,0,1-.344,1.856,3.314,3.314,0,0,1-1.9,1.9,5.5,5.5,0,0,1-1.856.345c-1.054.048-1.37.059-4.04.059s-2.988-.011-4.041-.059A5.523,5.523,0,0,1,4.1,17.79a3.1,3.1,0,0,1-1.15-.748,3.1,3.1,0,0,1-.75-1.15,5.525,5.525,0,0,1-.344-1.856c-.048-1.054-.058-1.37-.058-4.041s.01-2.985.058-4.039A5.533,5.533,0,0,1,2.205,4.1a3.1,3.1,0,0,1,.749-1.15A3.09,3.09,0,0,1,4.1,2.2,5.523,5.523,0,0,1,5.96,1.856C6.883,1.814,7.24,1.8,9.1,1.8v0Zm6.235,1.66a1.2,1.2,0,1,0,1.2,1.2,1.2,1.2,0,0,0-1.2-1.2ZM10,4.865A5.136,5.136,0,1,0,15.137,10,5.135,5.135,0,0,0,10,4.865Zm0,1.8A3.334,3.334,0,1,1,6.667,10,3.334,3.334,0,0,1,10,6.666Z" fill="#f6f5f6"/>
  </g>
</svg>
