<svg id="linkedin" xmlns="http://www.w3.org/2000/svg" width="20" height="20" viewBox="0 0 20 20">
  <g id="Groupe_7" data-name="Groupe 7">
    <path id="Tracé_15" data-name="Tracé 15" d="M0,1.433A1.451,1.451,0,0,1,1.469,0H18.531A1.451,1.451,0,0,1,20,1.433V18.567A1.451,1.451,0,0,1,18.531,20H1.469A1.451,1.451,0,0,1,0,18.567Zm6.179,15.31V7.711h-3v9.031ZM4.679,6.477a1.565,1.565,0,1,0,.02-3.12,1.564,1.564,0,1,0-.04,3.12Zm6.135,10.265V11.7a2.038,2.038,0,0,1,.1-.733,1.642,1.642,0,0,1,1.54-1.1c1.086,0,1.52.828,1.52,2.043v4.831h3v-5.18c0-2.775-1.48-4.065-3.455-4.065a2.982,2.982,0,0,0-2.706,1.491V9.02h-.02l.02-.031V7.711h-3c.038.848,0,9.031,0,9.031Z" fill="#f6f5f6"/>
  </g>
</svg>
