<svg id="Logo_desktop" data-name="Logo desktop" xmlns="http://www.w3.org/2000/svg" xmlns:xlink="http://www.w3.org/1999/xlink" width="150" height="36.659" viewBox="0 0 150 36.659">
  <defs>
    <clipPath id="clip-path">
      <rect id="Rectangle_2142" data-name="Rectangle 2142" width="150" height="36.659" fill="#0b1c2b"/>
    </clipPath>
  </defs>
  <g id="Groupe_44" data-name="Groupe 44" transform="translate(0 0)">
    <g id="Groupe_43" data-name="Groupe 43" transform="translate(0 0)" clip-path="url(#clip-path)">
      <path id="Tracé_23" data-name="Tracé 23" d="M28.709,21.634a20.227,20.227,0,0,1-1.161,7.258,13.553,13.553,0,0,1-3.119,4.929,12.083,12.083,0,0,1-4.554,2.807,16.8,16.8,0,0,1-5.521.9,16.777,16.777,0,0,1-5.521-.9,12.072,12.072,0,0,1-4.555-2.807,13.543,13.543,0,0,1-3.119-4.929A20.261,20.261,0,0,1,0,21.634a20.27,20.27,0,0,1,1.159-7.259A13.846,13.846,0,0,1,4.279,9.418,11.922,11.922,0,0,1,8.834,6.579a16.8,16.8,0,0,1,5.521-.9,16.814,16.814,0,0,1,5.521.9,11.933,11.933,0,0,1,4.554,2.839,13.855,13.855,0,0,1,3.119,4.958,20.237,20.237,0,0,1,1.161,7.259m-17.944,0a65.74,65.74,0,0,0,.745,11.679q.745,3.735,2.844,3.734T17.2,33.314a65.74,65.74,0,0,0,.745-11.679,64.745,64.745,0,0,0-.745-11.59q-.746-3.7-2.843-3.7t-2.844,3.7a64.746,64.746,0,0,0-.745,11.59" transform="translate(0 -1.56)" fill="#0b1c2b"/>
      <path id="Tracé_24" data-name="Tracé 24" d="M59.5.556a10.509,10.509,0,0,1,3.7.695,8.935,8.935,0,0,1,3.35,2.26,11.824,11.824,0,0,1,2.433,4.1,18.112,18.112,0,0,1,.94,6.258,15.561,15.561,0,0,1-1.1,6.208A11.527,11.527,0,0,1,66,24.148a10.42,10.42,0,0,1-3.855,2.21,13.834,13.834,0,0,1-4.155.67,7.6,7.6,0,0,1-2.915-.6,8.091,8.091,0,0,1-2.638-1.788q.046,1.391.046,3.153v4.048a3.794,3.794,0,0,0,.757,2.782,3.993,3.993,0,0,0,2.685.695v.8H40.729v-.8a4.007,4.007,0,0,0,2.662-.695,3.721,3.721,0,0,0,.78-2.782V19.032L44.125,6.565c0-.429-.2-.646-.6-.646h-.275v-.5a20.514,20.514,0,0,0,2.478-.4,18.6,18.6,0,0,0,2.685-.8,10.19,10.19,0,0,0,2.318-1.217A3.676,3.676,0,0,0,52.112,1.3h.321v4.42A8.333,8.333,0,0,1,55.3,1.872,7.1,7.1,0,0,1,59.5.556M57.62,26.283a2.084,2.084,0,0,0,1.766-.82A5.811,5.811,0,0,0,60.3,23.03a25.161,25.161,0,0,0,.345-3.972q.044-2.359.045-5.489,0-2.979-.068-5.215a32.587,32.587,0,0,0-.3-3.75A5.6,5.6,0,0,0,59.57,2.32a1.623,1.623,0,0,0-1.4-.77,3.989,3.989,0,0,0-1.835.472,6.447,6.447,0,0,0-1.721,1.316,8.941,8.941,0,0,0-1.4,1.962,7.229,7.229,0,0,0-.78,2.408V23.8a8.049,8.049,0,0,0,2.456,1.838,6.281,6.281,0,0,0,2.731.646" transform="translate(-11.183 -0.152)" fill="#0b1c2b"/>
      <path id="Tracé_25" data-name="Tracé 25" d="M96.948,36.368H82.123v-.7a3.808,3.808,0,0,0,2.64-.72,3.8,3.8,0,0,0,.757-2.757v-8.94l-.045-7.549q0-.7-.551-.7h-.276v-.447a19.239,19.239,0,0,0,2.442-.4,16.919,16.919,0,0,0,2.585-.8,8.725,8.725,0,0,0,2.192-1.242,3.957,3.957,0,0,0,1.316-1.738h.324V23.256q0,2.681.022,5.016t.022,3.924a3.8,3.8,0,0,0,.758,2.757,3.8,3.8,0,0,0,2.638.72ZM88.954,8.245a3.507,3.507,0,0,1-2.708-1.217,4.181,4.181,0,0,1-1.1-2.905,4.185,4.185,0,0,1,1.1-2.905A3.512,3.512,0,0,1,88.954,0a3.32,3.32,0,0,1,1.423.324,3.912,3.912,0,0,1,1.217.894,4.257,4.257,0,0,1,1.124,2.905,4.254,4.254,0,0,1-1.124,2.905,3.891,3.891,0,0,1-1.217.894,3.319,3.319,0,0,1-1.423.323" transform="translate(-22.549 0)" fill="#0b1c2b"/>
      <path id="Tracé_26" data-name="Tracé 26" d="M126.154,33.4a15.384,15.384,0,0,1-3.716,4.619,10,10,0,0,1-4.181,2.049,9.467,9.467,0,0,1-4.356-.129A14.407,14.407,0,0,1,109.619,38a15.357,15.357,0,0,1-3.568-3.213,11.329,11.329,0,0,1-2.119-4.12,12.087,12.087,0,0,1-.254-4.959,16.476,16.476,0,0,1,2.067-5.7,15.376,15.376,0,0,1,3.716-4.62,10.229,10.229,0,0,1,4.193-2.07,9.337,9.337,0,0,1,4.369.107A14.423,14.423,0,0,1,122.3,15.36a15.386,15.386,0,0,1,3.568,3.213,11.206,11.206,0,0,1,2.107,4.142,12.364,12.364,0,0,1,.242,4.98,16.474,16.474,0,0,1-2.067,5.7M113.4,25.025a52.194,52.194,0,0,0-4.123,8.649q-.958,3,.533,3.981t3.509-1.328a50.628,50.628,0,0,0,5.183-7.954,51.357,51.357,0,0,0,4.087-8.587q.947-2.979-.546-3.959t-3.5,1.307a49.827,49.827,0,0,0-5.147,7.891" transform="translate(-28.428 -3.598)" fill="#0b1c2b"/>
      <path id="Tracé_27" data-name="Tracé 27" d="M187.647,39.993H172.915l-.046-.745a4.244,4.244,0,0,0,2.48-.572,2.851,2.851,0,0,0,.917-2.16V28.271q0-2.731.023-4.619t-.046-3.2a15.806,15.806,0,0,0-.252-2.235,6.435,6.435,0,0,0-.6-1.714,2.905,2.905,0,0,0-2.271-1.663,4.473,4.473,0,0,0-3.1.77,7.28,7.28,0,0,0-2.433,2.707,11.406,11.406,0,0,0-1.285,4.743q.045,1.094.023,2.285t-.023,2.483v7.947a3.711,3.711,0,0,0,.78,2.781,4,4,0,0,0,2.663.7v.745H155.015v-.745a4.24,4.24,0,0,0,2.478-.572,2.849,2.849,0,0,0,.918-2.16V28.271q0-2.731.023-4.619t-.046-3.2a16.036,16.036,0,0,0-.251-2.235,6.453,6.453,0,0,0-.593-1.714,2.9,2.9,0,0,0-2.263-1.663,4.434,4.434,0,0,0-3.083.77,7.784,7.784,0,0,0-2.422,2.732,11.476,11.476,0,0,0-1.279,4.818V26.88q0,2.681.023,5.016t.023,3.924a3.794,3.794,0,0,0,.757,2.756,3.8,3.8,0,0,0,2.64.72v.7H137.114v-.7a3.8,3.8,0,0,0,2.639-.72,3.794,3.794,0,0,0,.757-2.756V26.88l-.046-7.55c0-.463-.184-.7-.551-.7h-.275v-.447a19.1,19.1,0,0,0,2.441-.4A16.763,16.763,0,0,0,144.665,17a8.747,8.747,0,0,0,2.193-1.242,3.968,3.968,0,0,0,1.316-1.738h.323l-.046,5.911a8.76,8.76,0,0,1,1.515-3.079,10.186,10.186,0,0,1,2.112-1.987,8.921,8.921,0,0,1,2.479-1.043,12.594,12.594,0,0,1,3.1-.422,12.857,12.857,0,0,1,3.19.348A7.894,7.894,0,0,1,163.6,14.96a5.4,5.4,0,0,1,1.79,2.334,13.246,13.246,0,0,1,.78,3.179.6.6,0,0,1,.022-.174.414.414,0,0,0,.023-.124.151.151,0,0,1,.046-.1,8.831,8.831,0,0,1,3.671-5.215,8.911,8.911,0,0,1,2.479-1.043,12.6,12.6,0,0,1,3.1-.422,12.851,12.851,0,0,1,3.19.348,7.875,7.875,0,0,1,2.753,1.217,5.664,5.664,0,0,1,1.722,2.185,10.949,10.949,0,0,1,.8,2.931,23.931,23.931,0,0,1,.207,3.576q-.025,1.937-.024,4.172l.046,7.947a3.783,3.783,0,0,0,.758,2.781,3.892,3.892,0,0,0,2.638.7Z" transform="translate(-37.647 -3.677)" fill="#0b1c2b"/>
    </g>
  </g>
</svg>
