<svg id="phone-alt" xmlns="http://www.w3.org/2000/svg" width="24" height="24" viewBox="0 0 24 24">
  <path id="Tracé_6" data-name="Tracé 6" d="M12,0A12,12,0,1,0,24,12,12,12,0,0,0,12,0ZM7.688,4.767a.731.731,0,0,1,.64.4L9.968,8.273A.9.9,0,0,1,9.785,9.3l-.751.751a.368.368,0,0,0-.078.214,6.411,6.411,0,0,0,1.934,2.852,6.407,6.407,0,0,0,2.676,1.893.423.423,0,0,0,.391-.038l.873-.889a1,1,0,0,1,1.059-.152H15.9l2.96,1.748a.712.712,0,0,1,.168,1.119L16.994,18.82a1.477,1.477,0,0,1-1.09.413,9.432,9.432,0,0,1-4.677-1.762,18.047,18.047,0,0,1-5.46-5.956,7.709,7.709,0,0,1-1-3.4,1.484,1.484,0,0,1,.415-1.1L7.223,4.978a.8.8,0,0,1,.464-.211Z" fill="#fff"/>
</svg>
