<svg xmlns="http://www.w3.org/2000/svg" width="20" height="20" viewBox="0 0 20 20">
  <g id="send-fill" transform="translate(0.002 0)">
    <g id="Groupe_26" data-name="Groupe 26" transform="translate(-0.002 0.001)">
      <path id="Tracé_17" data-name="Tracé 17" d="M19.953.858A.625.625,0,0,0,19.14.045L.957,7.319h0l-.565.225a.625.625,0,0,0-.1,1.109L.8,8.977v0l6.244,3.972L11.018,19.2l0,0,.325.512a.625.625,0,0,0,1.107-.1L19.953.858ZM17.662,3.22l.589-1.472-1.472.589L7.411,11.7l.422.269a.625.625,0,0,1,.192.192l.269.422L17.662,3.22Z" transform="translate(0.002 -0.001)" fill="#d3414a" fill-rule="evenodd"/>
    </g>
  </g>
</svg>
