<svg xmlns="http://www.w3.org/2000/svg" width="20" height="19.999" viewBox="0 0 20 19.999">
  <g id="telephone-fill" transform="translate(0.001 -0.002)">
    <g id="Groupe_25" data-name="Groupe 25" transform="translate(-0.001 0.002)">
      <path id="Tracé_16" data-name="Tracé 16" d="M2.355.64a2.181,2.181,0,0,1,3.262.2L7.861,3.726a2.18,2.18,0,0,1,.394,1.867L7.571,8.331a.847.847,0,0,0,.222.8l3.071,3.071a.847.847,0,0,0,.8.222l2.736-.684a2.181,2.181,0,0,1,1.867.394l2.882,2.242a2.181,2.181,0,0,1,.2,3.264l-1.292,1.292a3.471,3.471,0,0,1-3.6.877A23.292,23.292,0,0,1,5.709,14.29,23.292,23.292,0,0,1,.184,5.529a3.475,3.475,0,0,1,.879-3.6Z" transform="translate(0.001 -0.002)" fill="#d3414a" fill-rule="evenodd"/>
    </g>
  </g>
</svg>
